<?xml version="1.0" encoding="UTF-8"?>
<svg width="16px" height="16px" viewBox="0 0 16 16" version="1.1" xmlns="http://www.w3.org/2000/svg" xmlns:xlink="http://www.w3.org/1999/xlink">
    <!-- Generator: Sketch 49.3 (51167) - http://www.bohemiancoding.com/sketch -->
    <title>Shape</title>
    <desc>Created with Sketch.</desc>
    <defs></defs>
    <g id="Page-1" stroke="none" stroke-width="1" fill="none" fill-rule="evenodd">
        <g id="Stavka_tv_Page_article" transform="translate(-527.000000, -386.000000)" fill="#FFFFFF" fill-rule="nonzero">
            <g id="01---cover" transform="translate(119.000000, 72.000000)">
                <g id="date" transform="translate(136.000000, 312.000000)">
                    <g id="Group-3" transform="translate(272.000000, 0.000000)">
                        <g id="Group-34" transform="translate(0.000000, 2.000000)">
                            <g id="Group-33">
                                <g id="football-icon">
                                    <path d="M5.4375,7.28571429 L8,5.42857143 L10.5625,7.28571429 L9.58928571,10.2857143 L6.41964286,10.2857143 L5.4375,7.28571429 Z M8,0 C9.08333333,0 10.1190476,0.211309524 11.1071429,0.633928571 C12.0952381,1.05654762 12.9464286,1.625 13.6607143,2.33928571 C14.375,3.05357143 14.9434524,3.9047619 15.3660714,4.89285714 C15.7886905,5.88095238 16,6.91666667 16,8 C16,9.08333333 15.7886905,10.1190476 15.3660714,11.1071429 C14.9434524,12.0952381 14.375,12.9464286 13.6607143,13.6607143 C12.9464286,14.375 12.0952381,14.9434524 11.1071429,15.3660714 C10.1190476,15.7886905 9.08333333,16 8,16 C6.91666667,16 5.88095238,15.7886905 4.89285714,15.3660714 C3.9047619,14.9434524 3.05357143,14.375 2.33928571,13.6607143 C1.625,12.9464286 1.05654762,12.0952381 0.633928571,11.1071429 C0.211309524,10.1190476 0,9.08333333 0,8 C0,6.91666667 0.211309524,5.88095238 0.633928571,4.89285714 C1.05654762,3.9047619 1.625,3.05357143 2.33928571,2.33928571 C3.05357143,1.625 3.9047619,1.05654762 4.89285714,0.633928571 C5.88095238,0.211309524 6.91666667,0 8,0 Z M13.5267857,12.0535714 C14.4136905,10.8452381 14.8571429,9.49404762 14.8571429,8 L14.8571429,7.97321429 L13.9464286,8.76785714 L11.8035714,6.76785714 L12.3660714,3.88392857 L13.5625,3.99107143 C12.6696429,2.76488095 11.5119048,1.92559524 10.0892857,1.47321429 L10.5625,2.58035714 L8,4 L5.4375,2.58035714 L5.91071429,1.47321429 C4.48809524,1.92559524 3.33035714,2.76488095 2.4375,3.99107143 L3.64285714,3.88392857 L4.19642857,6.76785714 L2.05357143,8.76785714 L1.14285714,7.97321429 L1.14285714,8 C1.14285714,9.49404762 1.58630952,10.8452381 2.47321429,12.0535714 L2.74107143,10.875 L5.65178571,11.2321429 L6.89285714,13.8928571 L5.85714286,14.5089286 C6.55357143,14.7410714 7.26785714,14.8571429 8,14.8571429 C8.73214286,14.8571429 9.44642857,14.7410714 10.1428571,14.5089286 L9.10714286,13.8928571 L10.3482143,11.2321429 L13.2589286,10.875 L13.5267857,12.0535714 Z" id="Shape"></path>
                                </g>
                            </g>
                        </g>
                    </g>
                </g>
            </g>
        </g>
    </g>
</svg>